<svg version="1.1" id="Capa_1" xmlns="http://www.w3.org/2000/svg" xmlns:xlink="http://www.w3.org/1999/xlink" x="0px" y="0px" viewBox="0 0 512 512" style="enable-background:new 0 0 512 512;" xml:space="preserve">
                     <g>
                        <g>
                           <path d="M509,355.9l-24.4-24.2c-3.9-3.9-10.3-3.9-14.1,0.1c-3.9,3.9-3.9,10.3,0.1,14.1l24.4,24.2c2,1.9,4.5,2.9,7,2.9
c2.6,0,5.1-1,7.1-3C513,366.1,513,359.8,509,355.9z"></path>
                        </g>
                     </g>
                     <g>
                        <g>
                           <path d="M459.8,306.9c-3.9-3.9-10.2-3.9-14.1,0l0,0c-3.9,3.9-3.9,10.2,0,14.1c2,2,4.5,2.9,7.1,2.9c2.6,0,5.1-1,7.1-2.9
C463.7,317.1,463.7,310.8,459.8,306.9z"></path>
                        </g>
                     </g>
                     <g>
                        <g>
                           <path d="M374.5,353l97-97c14.7-14.7,14.7-38.6,0-53.3c-5.2-5.2-11.5-8.5-18.2-10.1c2.3-4.9,3.5-10.3,3.5-15.9
c0-10.1-3.9-19.5-11-26.7c-5.6-5.6-12.6-9.2-20.2-10.5c4.3-13.1,1.3-28.1-9.1-38.5c-5.7-5.7-12.8-9.2-20.2-10.5
c1.2-3.8,1.9-7.7,1.9-11.8c0-10.1-3.9-19.5-11-26.7c-7.1-7.1-16.6-11-26.7-11c-6.4,0-12.5,1.6-18,4.6l-1-1
c-12.5-13.5-30.3-21.2-48.7-21.2h-78.5c-5.5,0-10,4.5-10,10v13.1c0,5.2,0.9,10.4,2.6,15.2c-4.5-1.9-9.4-2.9-14.5-2.9
c-10.1,0-19.5,3.9-26.7,11c-10.4,10.4-13.4,25.4-9.1,38.5c-7.4,1.3-14.5,4.8-20.2,10.5c-7.1,7.1-11,16.6-11,26.7
c0,4.1,0.7,8.1,1.9,11.8c-7.6,1.3-14.6,4.9-20.2,10.5c-11.5,11.5-14,28.6-7.5,42.5c-6.8,1.6-13.1,5-18.2,10.1
c-14.7,14.7-14.7,38.6,0,53.3l20,20L2.9,391.9c-3.9,3.9-3.9,10.2,0,14.1c2,2,4.5,2.9,7.1,2.9s5.1-1,7.1-2.9l99.2-99.2
c5.6,3.2,12,4.9,18.6,4.9c10.1,0,19.5-3.9,26.7-11c7.7-7.7,11.4-18,11-28.2c0.5,0,1,0,1.5,0c9.6,0,19.3-3.7,26.7-11
c7.1-7.1,11-16.6,11-26.7c0-0.5,0-1,0-1.5c0.5,0,1,0,1.5,0c9.7,0,19.3-3.7,26.7-11c7.1-7.1,11-16.6,11-26.7c0-0.5,0-1,0-1.5
c0.5,0,1,0,1.5,0c9.7,0,19.3-3.7,26.7-11c13.8-13.8,14.6-35.8,2.5-50.5l66.4-66.4c3.3-3.3,7.8-5.2,12.5-5.2s9.2,1.8,12.5,5.2
c3.3,3.3,5.2,7.8,5.2,12.5c0,4.7-1.8,9.2-5.2,12.5l-9.8,9.8l-35.5,35.5c-3.9,3.9-3.9,10.2,0,14.1c2,2,4.5,2.9,7.1,2.9
s5.1-1,7.1-2.9l35.5-35.5c6.9-6.9,18.1-6.9,25,0c6.9,6.9,6.9,18.1,0,25l-9.8,9.8l-25.7,25.7c-3.9,3.9-3.9,10.2,0,14.1
c2,2,4.5,2.9,7.1,2.9s5.1-1,7.1-2.9l25.7-25.7c3.3-3.3,7.8-5.2,12.5-5.2c4.7,0,9.2,1.8,12.5,5.2c3.3,3.3,5.2,7.8,5.2,12.5
c0,4.7-1.8,9.2-5.2,12.5l-13.4,13.4L405.9,215c-3.9,3.9-3.9,10.2,0,14.1c2,2,4.5,2.9,7.1,2.9s5.1-1,7.1-2.9l12.3-12.3
c6.9-6.9,18.1-6.9,25,0c6.9,6.9,6.9,18.1,0,25l-97,97c-24.4,24.4-56.7,38.5-91.2,39.7c-2.5,0.1-4.9,1.1-6.7,2.9l-89.6,90
c-3.9,3.9-3.9,10.2,0,14.1c2,1.9,4.5,2.9,7.1,2.9c2.6,0,5.1-1,7.1-2.9l65.9-66.2c16.7,10.7,36.4,15.9,56.5,14.5l51.6,51.6
c2,2,4.5,2.9,7.1,2.9c2.6,0,5.1-1,7.1-2.9c3.9-3.9,3.9-10.2,0-14.1l-54.9-54.9c-2.1-2.1-5-3.1-7.9-2.9l-3.2,0.3
c-14.6,1.2-29.1-2-41.7-9.1l6.4-6.5C311.9,396,347.5,380,374.5,353z M147.4,286.6c-3.3,3.3-7.8,5.2-12.5,5.2
c-4.7,0-9.2-1.8-12.5-5.2l-27-27c-6.9-6.9-6.9-18.1,0-25c3.3-3.3,7.8-5.2,12.5-5.2c4.7,0,9.2,1.8,12.5,5.2l27,27
C154.3,268.5,154.3,279.7,147.4,286.6z M186.5,247.4c-6.9,6.9-18.1,6.9-25,0l-27-27L121.1,207c-6.9-6.9-6.9-18.1,0-25
c3.3-3.3,7.8-5.2,12.5-5.2c4.7,0,9.2,1.8,12.5,5.2l40.5,40.5c0,0,0,0,0,0c3.3,3.3,5.2,7.8,5.2,12.5S189.9,244.1,186.5,247.4z
M225.7,208.3c-6.9,6.9-18.1,6.9-25,0L150.4,158c-3.3-3.3-5.2-7.8-5.2-12.5c0-4.7,1.8-9.2,5.2-12.5c3.4-3.4,8-5.2,12.5-5.2
c4.5,0,9.1,1.7,12.5,5.2l22.9,22.9l27.4,27.4h0c3.3,3.3,5.2,7.8,5.2,12.5C230.9,200.5,229,204.9,225.7,208.3z M264.9,169.1
c-6.9,6.9-18.1,6.9-25,0l-50.3-50.3c0,0,0,0,0,0l-9.8-9.8c-6.9-6.9-6.9-18.1,0-25c3.4-3.4,8-5.2,12.5-5.2s9.1,1.7,12.5,5.2l60,60
c3.3,3.3,5.2,7.8,5.2,12.5C270,161.3,268.2,165.8,264.9,169.1z M267.5,118.4L240,91c3.1,0.7,6.3,1,9.6,1c0.1,0,0.1,0,0.2,0
l27.4-0.1c5.5,0,10-4.5,10-10c0-5.5-4.5-10-10-10c0,0,0,0,0,0L249.7,72c0,0-0.1,0-0.1,0c-6.8,0-13.1-2.6-17.9-7.4
c-4.8-4.8-7.5-11.2-7.5-18v-3.1h68.5c12.9,0,25.3,5.4,34.1,14.8l0.4,0.4L267.5,118.4z"></path>
                        </g>
                     </g>
                  </svg>