<svg version="1.1" id="Layer_1" xmlns="http://www.w3.org/2000/svg" xmlns:xlink="http://www.w3.org/1999/xlink" x="0px" y="0px" viewBox="0 0 496 496" style="enable-background:new 0 0 496 496;" xml:space="preserve">
                     <path d="M452.6,335.6l-60.6-14v-15.8c6.2-4.9,11.4-11,15.3-17.9h8.7c22.1,0,40-17.9,40-40c0-8.9-3-17.1-8-23.8V192
c0-52.9-43.1-96-96-96s-96,43.1-96,96v32.2c-5,6.7-8,14.8-8,23.8c0,22.1,17.9,40,40,40h8.7c4,6.9,9.2,12.9,15.3,17.9v15.8l-60.6,14
c-4,0.9-7.8,2.3-11.4,4.1V296c0-13.2-10.8-24-24-24H24c-13.2,0-24,10.8-24,24v144c0,13.2,10.8,24,24,24h64v16H72v16h424V390.2
C496,364,478.2,341.5,452.6,335.6z M318.2,336.6l19.5,14.6L318,363.1l-4.2-25.4L318.2,336.6z M343.4,400h17.3l6.7,80h-30.6
L343.4,400z M362.2,384h-20.5l-4.6-13.8l14.8-8.9l14.8,8.9L362.2,384z M366.3,351.3l19.5-14.6l5.6,1.3l-5.1,25.4L366.3,351.3z
M416,272h-2.1c1.3-5.1,2.1-10.5,2.1-16v-32c13.2,0,24,10.8,24,24S429.2,272,416,272z M352,112c44.1,0,80,35.9,80,80v19.4
c-4.9-2.2-10.3-3.4-16-3.4v-16h-16v4.5c-5.6,4.8-12.2,8.3-19.3,10.1c0.3-0.3,0.7-0.6,1-0.9l-11.3-11.3c-6,6-13.5,10.1-21.7,12.2
c0.3-0.3,0.7-0.6,1-0.9l-11.3-11.3c-8.7,8.7-20.7,13.7-33,13.7H304v-16h-16v16c-5.7,0-11.1,1.2-16,3.4V192
C272,147.9,307.9,112,352,112z M288,272c-13.2,0-24-10.8-24-24s10.8-24,24-24v32c0,5.5,0.8,10.9,2.1,16H288z M304,256v-32h1.4
c7.8,0,15.4-1.5,22.6-4.3v4.3h9.4c7.8,0,15.4-1.5,22.6-4.3v4.3h9.4c10.7,0,21.3-2.9,30.6-8.1V256c0,5.6-1,11-2.8,16H352v16h35.7
c-8.8,9.8-21.5,16-35.7,16C325.5,304,304,282.5,304,256z M352,320c8.5,0,16.6-1.7,24-4.7v8.7l-24,18l-24-18v-8.7
C335.4,318.3,343.5,320,352,320z M255,351.2l43.1-9.9l7.9,47.6l17.1-10.2l4.8,14.3l-7.3,87H280v-88h-16v88h-40v-17.5
c9.3-3.3,16-12.1,16-22.5v-81.7C244.4,354.9,249.5,352.5,255,351.2z M152,464h56v16h-56V464z M24,448c-4.4,0-8-3.6-8-8V296
c0-4.4,3.6-8,8-8h192c4.4,0,8,3.6,8,8v144c0,4.4-3.6,8-8,8h-64v-16c0-17.6-14.4-32-32-32s-32,14.4-32,32v16H24z M104,432
c0-8.8,7.2-16,16-16s16,7.2,16,16v48h-32V432z M480,480h-40v-88h-16v88h-40.6l-7.2-87l4.8-14.3l16.7,10l9.4-47.2l42,9.7
c18.2,4.2,31,20.2,31,39V480z"></path>
                     <path d="M200,163.5c0-10.3-6.6-19.5-16.4-22.8L152,130.2v-10.4c9.7-7.3,16-18.8,16-31.8V72c0-22.1-17.9-40-40-40S88,49.9,88,72v16
c0,13,6.3,24.5,16,31.8v10.4l-31.6,10.5C62.6,144,56,153.2,56,163.5V208h144V163.5z M104,72c0-13.2,10.8-24,24-24s24,10.8,24,24v16
c0,13.2-10.8,24-24,24s-24-10.8-24-24V72z M184,192H72v-28.5c0-3.4,2.2-6.5,5.5-7.6l42.5-14.2v-14.6c2.6,0.5,5.3,0.8,8,0.8
s5.4-0.3,8-0.8v14.6l42.5,14.2c3.3,1.1,5.5,4.2,5.5,7.6V192z"></path>
                     <path d="M128,256c70.6,0,128-57.4,128-128S198.6,0,128,0S0,57.4,0,128S57.4,256,128,256z M128,16c61.8,0,112,50.2,112,112
s-50.2,112-112,112S16,189.8,16,128S66.2,16,128,16z"></path>
                     <path d="M296,48h16v16h-16V48z"></path>
                     <path d="M344,48h16v16h-16V48z"></path>
                     <path d="M392,48h16v16h-16V48z"></path>
                  </svg>